<svg xmlns="http://www.w3.org/2000/svg" viewBox="0 0 131.79 27.54"><title>logo-face</title><g id="Слой_2" data-name="Слой 2"><g id="Слой_1-2" data-name="Слой 1"><rect x="114.03" y="4.09" width="2.04" height="23.44"/><rect x="121.61" y="1.54" width="2.04" height="22.27" transform="translate(44.88 -83) rotate(45)"/><rect x="129.75" y="4.08" width="2.04" height="23.45"/><rect x="94.49" y="4.08" width="2.04" height="23.45"/><polygon points="95.93 21.19 94.49 19.75 110.16 4.09 112.94 4.09 95.93 21.19"/><polygon points="99 17.64 100.44 16.2 111.76 27.53 108.88 27.54 99 17.64"/><rect x="74.7" y="4.08" width="2.04" height="23.45"/><rect x="82.27" y="1.54" width="2.04" height="22.27" transform="translate(33.36 -55.18) rotate(45)"/><rect x="90.42" y="4.08" width="2.04" height="23.45"/><rect y="4.09" width="2.04" height="23.45"/><rect x="7.86" y="-3.77" width="2.04" height="17.76" transform="translate(13.98 -3.77) rotate(90)"/><rect x="15.72" y="4.09" width="2.04" height="23.45"/><rect x="54.9" y="4.08" width="2.04" height="23.45"/><rect x="62.76" y="8.35" width="2.04" height="17.76" transform="translate(81.01 -46.55) rotate(90)"/><rect x="70.63" y="4.08" width="2.04" height="23.45"/><rect x="44.35" y="8.81" width="2.04" height="5.98" transform="translate(33.57 57.17) rotate(-90)"/><rect x="26.31" y="8.81" width="2.04" height="5.98" transform="translate(15.53 39.13) rotate(-90)"/><rect x="24.56" y="-2.66" width="2.04" height="7.36" transform="translate(26.6 -24.55) rotate(90)"/><rect x="46.33" y="-2.43" width="2.04" height="6.91" transform="translate(48.37 -46.32) rotate(90)"/><rect x="24.56" y="-2.66" width="2.04" height="7.36" transform="translate(26.6 -24.55) rotate(90)"/><rect x="46.33" y="-2.43" width="2.04" height="6.91" transform="translate(48.37 -46.32) rotate(90)"/><rect x="24.56" y="-2.66" width="2.04" height="7.36" transform="translate(26.6 -24.55) rotate(90)"/><rect x="46.33" y="-2.43" width="2.04" height="6.91" transform="translate(48.37 -46.32) rotate(90)"/><rect x="24.56" y="-2.66" width="2.04" height="7.36" transform="translate(26.6 -24.55) rotate(90)"/><rect x="46.33" y="-2.43" width="2.04" height="6.91" transform="translate(48.37 -46.32) rotate(90)"/><rect x="24.56" y="-2.66" width="2.04" height="7.36" transform="translate(26.6 -24.55) rotate(90)"/><rect x="46.33" y="-2.43" width="2.04" height="6.91" transform="translate(48.37 -46.32) rotate(90)"/><rect x="46.33" y="-2.43" width="2.04" height="6.91" transform="translate(48.37 -46.32) rotate(90)"/><rect x="24.43" y="-2.66" width="2.04" height="7.36" transform="translate(26.47 -24.43) rotate(90)"/><rect x="46.33" y="-2.43" width="2.04" height="6.91" transform="translate(48.37 -46.32) rotate(90)"/><rect x="35.33" y="8.81" width="2.04" height="5.98" transform="translate(24.55 48.15) rotate(-90)"/><polygon points="38.16 25.5 38.16 27.54 33.39 27.54 35.43 25.5 38.16 25.5"/><polygon points="43.17 22.51 40.3 22.5 35.28 27.53 38.16 27.53 43.17 22.51"/><rect x="50.83" y="4.08" width="2.04" height="23.45" transform="translate(103.7 31.61) rotate(-180)"/><path d="M50.87,6.12V16.24h-7c-.72-.13-4.5-1-4.5-5.11s3.73-4.89,4.49-5h7m2-2H43.73s-6.35.75-6.35,7.05,6.35,7.15,6.35,7.15h9.14V4.08Z"/><rect x="19.79" y="17.93" width="2.04" height="9.59"/><path d="M28.79,6.12c.79.12,4.49.93,4.49,5s-3.71,5-4.5,5.1h-7V6.12h7m.14-2H19.79V18.23h9.14s6.35-.86,6.35-7.13-6.35-7-6.35-7Z"/></g></g></svg>